<?xml version="1.0" encoding="UTF-8"?><svg xmlns="http://www.w3.org/2000/svg" viewBox="0 0 226.05 243.63"><defs><style>.cls-1{stroke-width:0px;}.cls-1,.cls-2{fill:#1d3d91;}.cls-2{stroke-width:7.58px;}.cls-2,.cls-3,.cls-4,.cls-5,.cls-6{stroke:#1d3d91;stroke-miterlimit:10;}.cls-3{stroke-width:7px;}.cls-3,.cls-4,.cls-5,.cls-6{fill:none;}.cls-4{stroke-width:4px;}.cls-5{stroke-linecap:round;stroke-width:3.5px;}.cls-6{stroke-width:7.01px;}</style></defs><g id="Ebene_2"><polygon class="cls-4" points="203.71 202.05 117.05 202.05 30.38 202.05 30.38 115.38 30.38 28.72 117.05 28.72 203.71 28.72 203.71 115.38 203.71 202.05"/></g><g id="Ebene_3"><line class="cls-6" x1="148.75" y1="138.93" x2="148.75" y2="85.14"/><path class="cls-6" d="m148.75,85.14c.98-31.38,27.28-46.81,53.2-46.67"/><path class="cls-6" d="m31.26,58.25c10.71-.39,23.02,3.38,35.54,15.89"/><path class="cls-6" d="m92.85,80.74c-1.22-1.71-11.73-35.69-11.73-35.69l-16.62,26.89"/></g><g id="ouvert"><circle class="cls-3" cx="177.11" cy="98.55" r="13.48"/><circle class="cls-1" cx="171.7" cy="98.18" r="3.75"/><path class="cls-1" d="m66.79,100.54c0,3.07-2.58,5.55-2.58,5.55,0,0-2.57-2.49-2.57-5.55s2.57-5.55,2.57-5.55c0,0,2.58,2.49,2.58,5.55Z"/><path class="cls-6" d="m76.02,102.22h0"/><path class="cls-6" d="m42.4,98.81h0c9.66,14.67,24.75,14.55,33.56-.26"/><path class="cls-6" d="m41.81,101.2c9.66-14.67,25.35-14.05,34.15.76"/></g><g id="bas"><path class="cls-6" d="m32.15,118.64h5.21c.32,0,.48.39.26.62l-4.54,4.54c-.25.25-.59.36-.92.32-.22-.03,0-5.48,0-5.48Z"/><path class="cls-6" d="m187.46,150.51c0,4.49,3.43,12.01,13.37,12.01"/><path class="cls-6" d="m32.05,123.08s-1.21,14.67,7.31,18.11c11.15,4.5,17.01-7.33,17.01-7.33"/><ellipse class="cls-2" cx="45.93" cy="74.14" rx="4.57" ry="9.5" transform="translate(-39.66 90.93) rotate(-69.32)"/><path class="cls-6" d="m205.54,135.87h-11.61c-.72,0-1.2-.76-.87-1.41l8.98-17.86-.03,1.46"/><line class="cls-5" x1="151.85" y1="155.73" x2="171.7" y2="135.87"/><line class="cls-5" x1="149.24" y1="149.36" x2="162.72" y2="135.87"/><line class="cls-5" x1="147.1" y1="142.61" x2="153.84" y2="135.87"/><line class="cls-5" x1="155.73" y1="162.04" x2="182.07" y2="135.7"/><line class="cls-5" x1="158.87" y1="169.16" x2="187.98" y2="140.05"/><line class="cls-5" x1="163.37" y1="173.9" x2="179.53" y2="157.75"/><line class="cls-5" x1="168.26" y1="178.26" x2="184.15" y2="162.37"/><line class="cls-5" x1="173.59" y1="182.56" x2="189.58" y2="166.57"/><line class="cls-5" x1="179.41" y1="186.22" x2="196.71" y2="168.92"/><line class="cls-5" x1="202.69" y1="147.48" x2="203.97" y2="146.2"/><line class="cls-5" x1="195.81" y1="147.63" x2="201.75" y2="141.69"/><line class="cls-5" x1="188.65" y1="147.48" x2="194.4" y2="141.72"/><line class="cls-5" x1="185.49" y1="189.33" x2="203.34" y2="171.48"/><line class="cls-5" x1="192.78" y1="191.29" x2="203.71" y2="180.35"/><line class="cls-5" x1="201.75" y1="192.28" x2="203.97" y2="190.06"/></g></svg>